<?xml version="1.0" encoding="utf-8"?>
<!-- Generator: Adobe Illustrator 16.0.0, SVG Export Plug-In . SVG Version: 6.00 Build 0)  -->
<!DOCTYPE svg PUBLIC "-//W3C//DTD SVG 1.1//EN" "http://www.w3.org/Graphics/SVG/1.1/DTD/svg11.dtd">
<svg version="1.1" id="Layer_1" xmlns="http://www.w3.org/2000/svg" xmlns:xlink="http://www.w3.org/1999/xlink" x="0px" y="0px"
	 width="81.402px" height="81.398px" viewBox="0 0 81.402 81.398" enable-background="new 0 0 81.402 81.398" xml:space="preserve">
<g>
	<path fill-rule="evenodd" clip-rule="evenodd" fill="#FBED1D" d="M40.734,81.398C18.301,81.422,0.023,63.176,0,40.73
		C-0.022,18.301,18.231,0.02,40.672,0c22.435-0.025,40.709,18.225,40.73,40.668C81.424,63.107,63.181,81.377,40.734,81.398z
		 M75.16,40.746C75.272,21.889,59.885,6.441,40.788,6.238C21.998,6.041,6.53,21.414,6.241,40.574
		c-0.283,18.771,15.46,34.574,34.457,34.584C59.629,75.168,75.048,59.771,75.16,40.746z"/>
	<path fill-rule="evenodd" clip-rule="evenodd" fill="#FBED1D" d="M18.464,51.289c14.906,9.006,29.644,8.982,44.371,0.07
		C52.663,65.719,29.581,66.451,18.464,51.289z"/>
	<path fill-rule="evenodd" clip-rule="evenodd" fill="#FBED1D" d="M34.235,34.348c-0.002,3.453-2.809,6.283-6.24,6.299
		c-3.41,0.016-6.285-2.826-6.321-6.246c-0.038-3.523,2.79-6.336,6.351-6.32C31.51,28.098,34.238,30.852,34.235,34.348z"/>
	<path fill-rule="evenodd" clip-rule="evenodd" fill="#FBED1D" d="M47.167,34.314c0.01-3.488,2.751-6.23,6.243-6.236
		c3.491-0.004,6.286,2.736,6.318,6.191c0.031,3.488-2.883,6.412-6.354,6.375C49.938,40.607,47.159,37.775,47.167,34.314z"/>
</g>
</svg>
