<?xml version="1.0" encoding="utf-8"?>
<!-- Generator: Adobe Illustrator 16.0.0, SVG Export Plug-In . SVG Version: 6.00 Build 0)  -->
<!DOCTYPE svg PUBLIC "-//W3C//DTD SVG 1.1//EN" "http://www.w3.org/Graphics/SVG/1.1/DTD/svg11.dtd">
<svg version="1.1" id="Layer_1" xmlns="http://www.w3.org/2000/svg" xmlns:xlink="http://www.w3.org/1999/xlink" x="0px" y="0px"
	 width="66.656px" height="81.145px" viewBox="0 0 66.656 81.145" enable-background="new 0 0 66.656 81.145" xml:space="preserve">
<path fill-rule="evenodd" clip-rule="evenodd" fill="#FBED1D" d="M0,80.994c0.989-1.59,1.973-3.182,2.966-4.768
	c4.221-6.738,8.434-13.479,12.668-20.207c2.47-3.928,4.975-7.834,7.466-11.746c0.854-1.344,0.863-1.35-0.474-2.355
	c-2.097-1.58-4.166-3.199-6.321-4.697c-0.834-0.578-0.927-1.219-0.64-2.014c0.821-2.258,1.768-4.453,3.351-6.316
	c1.389-1.635,3.031-2.842,5.218-3.082c2.776-0.303,4.921-1.838,6.967-3.533c4.637-3.84,8.387-8.492,11.969-13.287
	c0.152-0.203,0.045-0.824-0.161-1.029c-0.552-0.543-1.201-0.994-1.851-1.422c-1.891-1.25-2.425-3.316-1.135-5.107
	c1.165-1.621,3.279-1.932,5.118-0.58c5.215,3.828,10.394,7.707,15.586,11.564c1.489,1.107,2.991,2.201,4.467,3.33
	c1.186,0.908,1.663,2.139,1.387,3.602c-0.265,1.404-1.205,2.219-2.535,2.633c-1.048,0.328-1.976,0.029-2.836-0.551
	c-0.734-0.494-1.486-0.977-2.152-1.553c-0.697-0.607-1.205-0.469-1.666,0.223c-2.112,3.17-4.367,6.258-6.272,9.547
	c-1.458,2.516-2.59,5.244-3.626,7.971c-0.505,1.328-0.812,2.918-0.599,4.295c0.919,5.973-3.604,10.049-7.239,12.125
	c-0.217,0.121-0.721-0.049-0.979-0.236c-2.354-1.705-4.712-3.406-7.004-5.193c-0.841-0.654-1.346-0.461-1.975,0.232
	c-7.07,7.807-14.153,15.6-21.239,23.395c-2.629,2.889-5.275,5.762-7.915,8.643c-0.093,0.102-0.212,0.18-0.318,0.27
	C0.149,81.094,0.074,81.043,0,80.994z M46.754,10.795c-0.288,0.326-0.583,0.619-0.832,0.945c-3.823,5.027-7.807,9.914-12.815,13.834
	c-2.214,1.736-4.509,3.355-7.407,3.799c-0.69,0.105-1.39,0.305-2.025,0.592c-1.748,0.787-2.495,2.455-3.401,3.986
	c-0.49,0.826-0.28,1.291,0.47,1.828c2.541,1.818,5.035,3.709,7.542,5.578c3.511,2.621,7.009,5.26,10.542,7.85
	c0.256,0.188,0.909,0.215,1.122,0.027c1.8-1.59,3.435-3.354,3.173-5.994c-0.405-4.086,0.804-7.799,2.479-11.404
	c2.342-5.037,5.354-9.668,8.781-14.029c0.561-0.715,0.552-1.162-0.237-1.721c-2.214-1.564-4.371-3.213-6.556-4.816
	C47.364,11.104,47.101,10.99,46.754,10.795z"/>
</svg>
