<?xml version="1.0" encoding="utf-8"?>
<!-- Generator: Adobe Illustrator 16.0.0, SVG Export Plug-In . SVG Version: 6.00 Build 0)  -->
<!DOCTYPE svg PUBLIC "-//W3C//DTD SVG 1.1//EN" "http://www.w3.org/Graphics/SVG/1.1/DTD/svg11.dtd">
<svg version="1.1" id="Layer_1" xmlns="http://www.w3.org/2000/svg" xmlns:xlink="http://www.w3.org/1999/xlink" x="0px" y="0px"
	 width="93.102px" height="58.102px" viewBox="0 0 93.102 58.102" enable-background="new 0 0 93.102 58.102" xml:space="preserve">
<g>
	<path fill-rule="evenodd" clip-rule="evenodd" fill="#FBED1D" d="M45.568,55.838c-0.768-0.436-1.239-0.756-1.748-0.99
		c-1.539-0.709-3.008-1.258-4.864-1.137c-7.521,0.486-15.057,0.852-22.593,0.975c-3.611,0.061-7.238-0.492-10.85-0.867
		c-0.387-0.041-0.999-0.746-1.008-1.152c-0.076-3.951-0.047-7.908-0.047-11.861c0-11.512,0-23.025,0-34.537c0-0.713,0-1.428,0-2.34
		c1.014,0.193,1.813,0.346,2.769,0.525c0,0.539,0,1.049,0,1.559c0,13.596,0,27.189,0,40.787c0,0.26,0.003,0.52-0.01,0.779
		c-0.213,4.406-0.14,4.713,4.199,4.975c5.962,0.363,11.943,0.404,17.916,0.523c3.308,0.066,6.619,0.012,9.449,0.012
		c-0.798-0.135-2.114-0.479-3.446-0.559c-4.356-0.262-8.735-0.256-13.073-0.678c-4.162-0.408-8.286-1.225-12.429-1.859
		c-0.863-0.135-1.153-0.607-1.153-1.5C8.671,32.66,8.63,16.828,8.601,0.998c0-0.301,0.068-0.6,0.119-0.998
		c6.538,1.848,13.166,1.465,19.767,1.621c3.835,0.092,7.668,0.504,11.484,0.934c1.092,0.121,2.178,0.701,3.168,1.25
		c1.643,0.912,2.483,2.215,2.471,4.293c-0.089,13.021-0.043,26.041-0.041,39.061C45.568,49.957,45.568,52.752,45.568,55.838z"/>
	<path fill-rule="evenodd" clip-rule="evenodd" fill="#FBED1D" d="M52.869,53.654c-1.729,0.592-3.458,1.182-5.352,1.83
		c0-1.367,0-2.934,0-4.502c0-14.533,0.021-29.068-0.026-43.602c-0.007-1.756,0.953-2.875,2.261-3.416
		c2.18-0.902,4.49-1.703,6.814-1.994c3.19-0.4,6.443-0.301,9.671-0.383c3.019-0.078,6.049,0.018,9.059-0.201
		c2.997-0.217,5.972-0.727,9.088-1.125c0.015,0.33,0.059,0.826,0.059,1.322c0.003,15.527-0.012,31.057,0.029,46.584
		c0.004,1.199-0.328,1.654-1.528,1.979c-6.615,1.783-13.407,1.682-20.156,2.109c-3,0.189-5.988,0.596-8.978,0.936
		c-0.328,0.039-0.629,0.305-0.941,0.467L52.869,53.654z"/>
	<path fill-rule="evenodd" clip-rule="evenodd" fill="#FBED1D" d="M90.019,8.258c1.042-0.09,1.949-0.17,3.042-0.266
		c0,0.621,0,1.129,0,1.637c0,15.469-0.024,30.936,0.041,46.404c0.007,1.516-0.554,1.777-1.861,1.895
		c-7.245,0.66-14.316-0.701-21.422-1.705c-5.247-0.74-10.501-1.432-15.766-2.238c3.608,0.205,7.221,0.383,10.828,0.625
		c6.438,0.432,12.869,0.959,19.311,1.32c1.891,0.105,3.804-0.223,5.827-0.361C90.019,39.662,90.019,24.008,90.019,8.258z"/>
	<path fill-rule="evenodd" clip-rule="evenodd" fill="#FBED1D" d="M3.033,55.736c3.687,0.055,7.215,0.32,10.716,0.107
		c6.232-0.383,12.444-1.104,18.671-1.578c2.201-0.168,4.426-0.025,5.95-0.025c-9.488,1.201-19.638,2.555-29.808,3.729
		c-2.404,0.277-4.88-0.055-7.324-0.111C0.491,57.84-0.002,57.676,0,56.699C0.037,40.557,0.039,24.412,0.052,8.266
		c0-0.045,0.047-0.09,0.133-0.25C1.038,8.082,1.946,8.15,3.033,8.234C3.033,23.945,3.033,39.643,3.033,55.736z"/>
	<path fill-rule="evenodd" clip-rule="evenodd" fill="#FBED1D" d="M52.868,53.658c4.358-0.182,8.72-0.344,13.077-0.549
		c5.866-0.279,11.736-0.521,17.595-0.922c2.273-0.158,2.261-0.336,2.258-2.697c0-14.373-0.001-28.748-0.001-43.121
		c0-0.57,0-1.141,0-1.871c0.88-0.189,1.717-0.367,2.769-0.594c0,0.705,0,1.262,0,1.818c0,15.363-0.018,30.727,0.033,46.088
		c0.005,1.398-0.329,1.973-1.77,2.246c-5.86,1.121-11.722,0.615-17.596,0.314c-4.882-0.254-9.769-0.395-14.652-0.59
		c-0.571-0.023-1.141-0.084-1.71-0.127C52.869,53.654,52.868,53.658,52.868,53.658z"/>
</g>
</svg>
