<?xml version="1.0" encoding="utf-8"?>
<!-- Generator: Adobe Illustrator 16.0.0, SVG Export Plug-In . SVG Version: 6.00 Build 0)  -->
<!DOCTYPE svg PUBLIC "-//W3C//DTD SVG 1.1//EN" "http://www.w3.org/Graphics/SVG/1.1/DTD/svg11.dtd">
<svg version="1.1" id="Layer_1" xmlns="http://www.w3.org/2000/svg" xmlns:xlink="http://www.w3.org/1999/xlink" x="0px" y="0px"
	 width="84.082px" height="84.024px" viewBox="0 0 84.082 84.024" enable-background="new 0 0 84.082 84.024" xml:space="preserve">
<g>
	<path fill-rule="evenodd" clip-rule="evenodd" fill="#FBED1D" d="M84.082,41.943c-0.243,23.586-18.71,41.693-41.242,42.074
		C18.634,84.426,0.027,65.199,0,42.035C-0.027,18.758,18.685-0.004,41.992,0C65.321,0.004,83.817,18.637,84.082,41.943z
		 M6.875,41.932c-0.069,19.203,15.35,35.52,35.762,35.219c18.697-0.279,34.347-15.07,34.528-34.896
		C77.343,22.758,61.826,6.947,42.076,6.863C22.879,6.785,6.928,22.258,6.875,41.932z"/>
	<path fill-rule="evenodd" clip-rule="evenodd" fill="#FBED1D" d="M41.082,51.537c-1.208-0.002-2.419-0.045-3.623,0.014
		c-0.863,0.041-1.099-0.307-1.172-1.129c-0.426-4.729,1.301-8.674,4.212-12.266c1.301-1.605,2.579-3.27,3.574-5.068
		c2.102-3.801-0.233-6.799-4.238-6.971c-2.283-0.1-4.469,0.494-6.505,1.559c-1.061,0.557-1.135,0.498-1.468-0.65
		c-0.458-1.582-0.935-3.16-1.479-4.713c-0.915-2.615-0.365-2.215,1.358-2.969c4.117-1.803,8.495-2.367,12.931-1.861
		c4.066,0.465,7.741,1.93,9.908,5.725c1.333,2.332,1.763,4.822,1.277,7.586c-0.583,3.324-2.345,5.895-4.422,8.35
		c-1.621,1.92-3.391,3.701-4.415,6.078c-0.716,1.666-0.94,3.373-0.997,5.127c-0.028,0.873-0.293,1.25-1.214,1.205
		C43.57,51.488,42.326,51.537,41.082,51.537z"/>
	<path fill-rule="evenodd" clip-rule="evenodd" fill="#FBED1D" d="M40.903,68.338c-3.327,0.096-6.516-2.723-6.439-6.699
		c0.083-4.33,2.999-6.729,6.472-6.639c4.226,0.107,6.525,2.496,6.58,6.893C47.558,65.357,45.114,68.297,40.903,68.338z"/>
</g>
</svg>
