<?xml version="1.0" encoding="utf-8"?>
<!-- Generator: Adobe Illustrator 16.0.0, SVG Export Plug-In . SVG Version: 6.00 Build 0)  -->
<!DOCTYPE svg PUBLIC "-//W3C//DTD SVG 1.1//EN" "http://www.w3.org/Graphics/SVG/1.1/DTD/svg11.dtd">
<svg version="1.1" id="Layer_1" xmlns="http://www.w3.org/2000/svg" xmlns:xlink="http://www.w3.org/1999/xlink" x="0px" y="0px"
	 width="398.738px" height="137.843px" viewBox="0 0 398.738 137.843" enable-background="new 0 0 398.738 137.843"
	 xml:space="preserve">
<g>
	<g>
		<g>
			<path fill="#010101" d="M27.975,64.595l-0.016-0.15c-1.645-15.679,9.354-28.664,25.034-30.309
				c11.552-1.212,19.944,3.595,25.212,11.158l-13.588,9.996c-2.344-3.546-5.395-5.88-10.196-5.377
				c-5.927,0.622-9.285,6.208-8.623,12.509l0.016,0.149c0.716,6.827,5.271,11.203,11.047,10.597c4.951-0.52,7.443-3.512,9.209-7.641
				l15.337,6.658C77.799,80.453,71.117,87.6,58.063,88.97C43.508,90.496,29.683,80.875,27.975,64.595z"/>
			<path fill="#010101" d="M83.227,61.377L80.189,32.42l17.854-1.873l3.015,28.731c0.685,6.527,4.352,8.949,9.078,8.452
				c4.727-0.495,7.834-3.4,7.166-9.776l-3.054-29.107l17.855-1.874l2.999,28.582c1.881,17.929-7.807,26.075-23.486,27.72
				C95.937,84.92,85.054,78.781,83.227,61.377z"/>
			<path fill="#010101" d="M137.65,26.391l17.554-1.841l3.936,37.509l24.681-2.589l1.574,15.003l-42.235,4.431L137.65,26.391z"/>
			<path fill="#010101" d="M191.195,35.791l-15.454,1.621l-1.558-14.854l48.46-5.085l1.559,14.854l-15.454,1.621l3.952,37.658
				l-17.554,1.843L191.195,35.791z"/>
			<path fill="#010101" d="M229.206,46.06l-3.038-28.956l17.854-1.874l3.015,28.732c0.686,6.527,4.352,8.949,9.078,8.453
				c4.727-0.496,7.835-3.401,7.166-9.777l-3.055-29.108l17.854-1.873l3,28.582c1.881,17.929-7.807,26.075-23.486,27.72
				C241.916,69.604,231.033,63.464,229.206,46.06z"/>
			<path fill="#010101" d="M283.628,11.075l25.656-2.692c9.302-0.976,15.473,0.728,19.534,4.018
				c3.481,2.821,5.542,6.548,6.107,11.949l0.016,0.151c0.804,7.651-2.614,13.395-8.667,17.14l14.102,16.571l-20.031,2.102
				l-11.475-13.964l-3.752,0.393l1.574,15.003l-17.555,1.842L283.628,11.075z M311.381,33.419c4.2-0.441,6.554-2.585,6.216-5.81
				l-0.016-0.15c-0.354-3.376-3.152-4.75-7.203-4.326l-7.652,0.803l1.078,10.278L311.381,33.419z"/>
			<path fill="#010101" d="M353.654,3.349l17.404-1.826l27.68,50.565l-19.055,1.999l-3.516-6.76l-18.38,1.929l-1.96,7.334
				l-18.754,1.968L353.654,3.349z M370.509,35.331l-6.139-12.25l-3.463,13.257L370.509,35.331z"/>
		</g>
		<g>
			<path fill="#010101" d="M135.94,87.191l19.654-2.062l13.296,28.412l7.109-30.553l19.354-2.03l-15.756,55.122l-16.803,1.764
				L135.94,87.191z"/>
			<path fill="#010101" d="M197.676,80.713l17.554-1.843l5.51,52.514l-17.553,1.841L197.676,80.713z"/>
			<path fill="#010101" d="M217.555,78.626l19.654-2.061l13.296,28.411l7.107-30.554l19.356-2.029l-15.757,55.123l-16.804,1.762
				L217.555,78.626z"/>
			<path fill="#010101" d="M289.906,70.658l17.404-1.827l27.678,50.566l-19.053,1.999l-3.516-6.762l-18.381,1.93l-1.961,7.335
				l-18.754,1.968L289.906,70.658z M306.761,102.639l-6.139-12.249l-3.464,13.256L306.761,102.639z"/>
		</g>
	</g>
	<g>
		<path fill="#010101" d="M6.196,15.725v5.756H2.699V6.461h5.777c1.739,0,3.118,0.402,4.137,1.207
			c1.018,0.805,1.526,1.905,1.526,3.301c0,0.777-0.205,1.444-0.614,2.001s-1.013,1.011-1.811,1.362
			c0.921,0.261,1.583,0.696,1.986,1.305c0.402,0.609,0.604,1.367,0.604,2.275v0.949c0,0.392,0.059,0.839,0.176,1.341
			c0.116,0.502,0.319,0.86,0.608,1.073v0.207h-3.59c-0.275-0.213-0.456-0.591-0.542-1.135c-0.086-0.543-0.129-1.045-0.129-1.506
			v-0.908c0-0.715-0.189-1.262-0.567-1.64c-0.378-0.378-0.932-0.567-1.661-0.567H6.196z M6.196,13.043h2.301
			c0.701,0,1.238-0.16,1.609-0.479c0.371-0.32,0.557-0.779,0.557-1.377c0-0.612-0.19-1.105-0.572-1.48
			C9.708,9.331,9.17,9.144,8.476,9.144h-2.28V13.043z"/>
		<path fill="#010101" d="M26.034,15.055h-5.891v3.745h6.943v2.682h-10.44V6.461h10.46v2.682h-6.963v3.229h5.891V15.055z"/>
		<path fill="#010101" d="M28.664,21.481V6.461h5.426c1.768,0,3.246,0.576,4.436,1.728c1.19,1.152,1.785,2.629,1.785,4.431v2.703
			c0,1.809-0.595,3.288-1.785,4.436c-1.189,1.148-2.668,1.723-4.436,1.723H28.664z M32.161,9.144v9.656h1.692
			c0.929,0,1.654-0.318,2.177-0.954s0.784-1.477,0.784-2.522v-2.724c0-1.038-0.262-1.874-0.784-2.506s-1.248-0.949-2.177-0.949
			H32.161z"/>
		<path fill="#010101" d="M51.855,15.055h-5.891v3.745h6.942v2.682H42.467V6.461h10.46v2.682h-6.963v3.229h5.891V15.055z"/>
	</g>
	<g>
		<g>
			<path fill="#F15D47" d="M25.691,63.073l-0.016-0.15c-1.645-15.679,9.354-28.665,25.034-30.309
				c11.552-1.212,19.944,3.596,25.212,11.158l-13.588,9.997c-2.345-3.547-5.396-5.881-10.197-5.377
				c-5.927,0.622-9.284,6.208-8.623,12.509l0.016,0.15c0.716,6.827,5.27,11.202,11.046,10.596c4.952-0.52,7.444-3.511,9.21-7.64
				l15.337,6.658c-3.608,8.267-10.29,15.414-23.344,16.783C41.226,88.973,27.398,79.351,25.691,63.073z"/>
			<path fill="#F15D47" d="M80.943,59.855l-3.039-28.958l17.855-1.873l3.015,28.731c0.685,6.527,4.352,8.948,9.078,8.452
				c4.726-0.496,7.834-3.4,7.166-9.777l-3.055-29.107l17.855-1.874l2.999,28.582c1.881,17.93-7.806,26.075-23.485,27.72
				C93.652,83.398,82.77,77.259,80.943,59.855z"/>
			<path fill="#F15D47" d="M135.367,24.869l17.553-1.842l3.937,37.508l24.681-2.589l1.574,15.003l-42.234,4.431L135.367,24.869z"/>
			<path fill="#F15D47" d="M188.912,34.269l-15.454,1.621l-1.559-14.854l48.461-5.085l1.559,14.854l-15.454,1.622l3.953,37.658
				l-17.555,1.843L188.912,34.269z"/>
			<path fill="#F15D47" d="M226.921,44.538l-3.038-28.957l17.854-1.873l3.016,28.731c0.684,6.527,4.352,8.949,9.077,8.453
				s7.835-3.401,7.166-9.777l-3.056-29.107l17.855-1.874l2.998,28.582c1.883,17.93-7.806,26.075-23.484,27.719
				C239.632,68.081,228.749,61.942,226.921,44.538z"/>
			<path fill="#F15D47" d="M281.345,9.552l25.656-2.692c9.301-0.976,15.473,0.728,19.533,4.018
				c3.482,2.821,5.542,6.548,6.107,11.949l0.016,0.151c0.803,7.651-2.613,13.395-8.667,17.139l14.101,16.571l-20.029,2.102
				l-11.477-13.964l-3.751,0.393l1.573,15.003l-17.553,1.842L281.345,9.552z M309.097,31.896c4.201-0.44,6.555-2.585,6.215-5.81
				l-0.014-0.15c-0.355-3.377-3.153-4.751-7.205-4.326l-7.651,0.803l1.078,10.277L309.097,31.896z"/>
			<path fill="#F15D47" d="M351.371,1.826L368.773,0l27.681,50.565L377.4,52.564l-3.517-6.76l-18.38,1.929l-1.96,7.335
				l-18.755,1.968L351.371,1.826z M368.226,33.808l-6.139-12.25l-3.463,13.257L368.226,33.808z"/>
		</g>
		<g>
			<path fill="#F15D47" d="M133.656,85.667l19.654-2.062l13.296,28.411l7.109-30.553l19.354-2.029l-15.756,55.121l-16.804,1.764
				L133.656,85.667z"/>
			<path fill="#F15D47" d="M195.393,79.191l17.554-1.842l5.509,52.512l-17.554,1.842L195.393,79.191z"/>
			<path fill="#F15D47" d="M215.271,77.105l19.654-2.062l13.295,28.411l7.109-30.553l19.355-2.03l-15.756,55.122l-16.805,1.762
				L215.271,77.105z"/>
			<path fill="#F15D47" d="M287.621,69.135l17.405-1.827l27.679,50.566l-19.055,1.999l-3.516-6.762l-18.379,1.929l-1.961,7.336
				l-18.754,1.969L287.621,69.135z M304.476,101.117l-6.138-12.25l-3.464,13.258L304.476,101.117z"/>
		</g>
	</g>
	<g>
		<path fill="#FFFFFF" d="M4.673,14.203v5.756H1.176V4.939h5.777c1.74,0,3.119,0.402,4.137,1.207
			c1.018,0.805,1.527,1.905,1.527,3.301c0,0.777-0.205,1.444-0.614,2.001s-1.013,1.011-1.811,1.362
			c0.922,0.261,1.584,0.696,1.986,1.305c0.402,0.609,0.604,1.367,0.604,2.275v0.949c0,0.392,0.058,0.839,0.175,1.341
			c0.117,0.502,0.32,0.86,0.609,1.073v0.207h-3.59c-0.275-0.213-0.456-0.591-0.542-1.135c-0.086-0.543-0.129-1.045-0.129-1.506
			V16.41c0-0.715-0.189-1.262-0.567-1.64c-0.378-0.378-0.932-0.567-1.661-0.567H4.673z M4.673,11.521h2.3
			c0.702,0,1.238-0.16,1.609-0.479c0.372-0.32,0.557-0.779,0.557-1.377c0-0.612-0.191-1.105-0.573-1.48
			c-0.381-0.375-0.92-0.562-1.614-0.562h-2.28V11.521z"/>
		<path fill="#FFFFFF" d="M24.511,13.532h-5.891v3.745h6.942v2.682H15.124V4.939h10.46v2.682h-6.963v3.229h5.891V13.532z"/>
		<path fill="#FFFFFF" d="M27.141,19.959V4.939h5.427c1.767,0,3.246,0.576,4.436,1.728c1.189,1.152,1.785,2.629,1.785,4.431V13.8
			c0,1.809-0.595,3.288-1.785,4.436c-1.19,1.148-2.668,1.723-4.436,1.723H27.141z M30.638,7.621v9.656h1.692
			c0.928,0,1.654-0.318,2.177-0.954c0.522-0.636,0.784-1.477,0.784-2.522v-2.724c0-1.038-0.261-1.874-0.784-2.506
			c-0.523-0.633-1.249-0.949-2.177-0.949H30.638z"/>
		<path fill="#FFFFFF" d="M50.332,13.532h-5.891v3.745h6.943v2.682h-10.44V4.939h10.46v2.682h-6.963v3.229h5.891V13.532z"/>
	</g>
</g>
<g>
</g>
<g>
</g>
<g>
</g>
<g>
</g>
<g>
</g>
<g>
</g>
</svg>
