<?xml version="1.0" encoding="utf-8"?>
<!-- Generator: Adobe Illustrator 16.0.0, SVG Export Plug-In . SVG Version: 6.00 Build 0)  -->
<!DOCTYPE svg PUBLIC "-//W3C//DTD SVG 1.1//EN" "http://www.w3.org/Graphics/SVG/1.1/DTD/svg11.dtd">
<svg version="1.1" id="Layer_1" xmlns="http://www.w3.org/2000/svg" xmlns:xlink="http://www.w3.org/1999/xlink" x="0px" y="0px"
	 width="800px" height="351px" viewBox="0 0 800 351" enable-background="new 0 0 800 351" xml:space="preserve">
<g>
	<g>
		<path fill="#F05C46" d="M27.499,171.481l-0.032-0.305c-3.345-31.882,19.022-58.288,50.905-61.633
			c23.492-2.465,40.556,7.312,51.269,22.69l-27.632,20.327c-4.766-7.211-10.971-11.958-20.734-10.934
			c-12.051,1.264-18.878,12.623-17.534,25.437l0.032,0.305c1.457,13.882,10.718,22.78,22.464,21.548
			c10.068-1.057,15.136-7.14,18.728-15.537l31.186,13.538c-7.336,16.81-20.924,31.344-47.467,34.129
			C59.088,224.15,30.972,204.584,27.499,171.481z"/>
		<path fill="#F05C46" d="M139.852,164.937l-6.178-58.882l36.306-3.809l6.13,58.425c1.393,13.271,8.849,18.196,18.459,17.187
			c9.61-1.008,15.93-6.915,14.57-19.881l-6.21-59.188l36.306-3.809l6.098,58.12c3.826,36.458-15.874,53.021-47.755,56.367
			C165.695,212.811,143.565,200.327,139.852,164.937z"/>
		<path fill="#F05C46" d="M250.518,93.795l35.695-3.745l8.002,76.272l50.187-5.266l3.201,30.509l-85.882,9.011L250.518,93.795z"/>
		<path fill="#F05C46" d="M359.398,112.909l-31.424,3.297l-3.169-30.205l98.542-10.34l3.17,30.205l-31.424,3.297l8.036,76.576
			l-35.696,3.745L359.398,112.909z"/>
		<path fill="#F05C46" d="M436.691,133.791l-6.178-58.882L466.82,71.1l6.129,58.425c1.393,13.271,8.85,18.196,18.461,17.188
			c9.609-1.008,15.93-6.915,14.57-19.881l-6.211-59.188l36.305-3.809l6.1,58.12c3.824,36.458-15.875,53.021-47.758,56.367
			C462.535,181.666,440.406,169.182,436.691,133.791z"/>
		<path fill="#F05C46" d="M547.357,62.65l52.17-5.474c18.916-1.984,31.463,1.48,39.723,8.171
			c7.078,5.735,11.268,13.314,12.42,24.298l0.031,0.306c1.633,15.559-5.316,27.238-17.625,34.853L662.75,158.5l-40.73,4.273
			l-23.336-28.396l-7.627,0.8l3.201,30.509l-35.695,3.745L547.357,62.65z M603.791,108.086c8.541-0.896,13.328-5.255,12.641-11.813
			l-0.033-0.305c-0.721-6.865-6.41-9.661-14.648-8.796l-15.561,1.633l2.193,20.898L603.791,108.086z"/>
		<path fill="#F05C46" d="M689.75,46.939l35.391-3.713l56.285,102.821l-38.746,4.065l-7.15-13.747l-37.373,3.921l-3.986,14.915
			l-38.135,4.001L689.75,46.939z M724.025,111.972l-12.482-24.908l-7.043,26.957L724.025,111.972z"/>
	</g>
	<g>
		<path fill="#F05C46" d="M247.04,217.428l39.966-4.193l27.036,57.773l14.456-62.126l39.357-4.129l-32.039,112.089l-34.17,3.585
			L247.04,217.428z"/>
		<path fill="#F05C46" d="M372.578,204.256l35.696-3.745l11.203,106.781l-35.695,3.745L372.578,204.256z"/>
		<path fill="#F05C46" d="M413,200.015l39.967-4.193l27.035,57.773l14.455-62.127l39.357-4.129l-32.039,112.089l-34.17,3.585
			L413,200.015z"/>
		<path fill="#F05C46" d="M560.121,183.808l35.391-3.713l56.283,102.823l-38.746,4.065l-7.148-13.748l-37.373,3.922l-3.988,14.916
			l-38.135,4.001L560.121,183.808z M594.396,248.842l-12.484-24.91l-7.041,26.958L594.396,248.842z"/>
	</g>
</g>
<g>
</g>
<g>
</g>
<g>
</g>
<g>
</g>
<g>
</g>
<g>
</g>
<g>
</g>
<g>
</g>
<g>
</g>
<g>
</g>
<g>
</g>
<g>
</g>
<g>
</g>
<g>
</g>
<g>
</g>
</svg>
